{
 "cells": [
  {
   "cell_type": "code",
   "execution_count": null,
   "metadata": {},
   "outputs": [
    {
     "ename": "",
     "evalue": "",
     "output_type": "error",
     "traceback": [
      "\u001b[1;31mRunning cells with '/bin/python3.10' requires the ipykernel package.\n",
      "\u001b[1;31mRun the following command to install 'ipykernel' into the Python environment. \n",
      "\u001b[1;31mCommand: '/bin/python3.10 -m pip install ipykernel -U --user --force-reinstall'"
     ]
    }
   ],
   "source": [
    "import json\n",
    "from pathlib import Path\n",
    "from pyannote.audio.pipelines import SpeakerDiarization\n",
    "from lib.diarization import DiarizationPostProcessor\n",
    "from lib.audio import AudioPreProcessor\n",
    "\n",
    "class SimpleDiarizer:\n",
    "    def setup(self):\n",
    "        \"\"\"Load the model into memory\"\"\"\n",
    "        #part which can be configured\n",
    "        self.diarization = SpeakerDiarization(\n",
    "                segmentation=\"/data/pyannote/segmentation/pytorch_model.bin\",\n",
    "                embedding=\"/data/speechbrain/spkrec-ecapa-voxceleb\",\n",
    "                clustering=\"AgglomerativeClustering\",  # You can also try other clustering methods\n",
    "                segmentation_batch_size=32,\n",
    "                embedding_batch_size=32,\n",
    "                embedding_exclude_overlap=False,  # Keep this false for overlapping speech\n",
    "                segmentation_step=0.05  # Try a smaller step for finer granularity (default is 0.1)\n",
    "        )\n",
    "        #part which can be configured\n",
    "        self.diarization.instantiate({\n",
    "            \"clustering\": {\n",
    "                \"method\": \"centroid\",\n",
    "                \"min_cluster_size\": 15,\n",
    "                \"threshold\": 0.65,\n",
    "            },\n",
    "            \"segmentation\": {\n",
    "                \"min_duration_off\": 0.3,\n",
    "                \"threshold\": 0.35,\n",
    "            },\n",
    "        })\n",
    "        self.diarization_post = DiarizationPostProcessor()\n",
    "        self.audio_pre = AudioPreProcessor()\n",
    "\n",
    "    def run_diarization(self):\n",
    "        closure = {'embeddings': None}\n",
    "\n",
    "        def hook(name, *args, **kwargs):\n",
    "            if name == \"embeddings\" and len(args) > 0:\n",
    "                closure['embeddings'] = args[0]\n",
    "\n",
    "        print('diarizing audio file...')\n",
    "        #part which can be configured\n",
    "        diarization = self.diarization(\n",
    "            self.audio_pre.output_path,\n",
    "            min_speakers=2,     # Ensure at least 2 speakers are detected\n",
    "            max_speakers=8,     # Allow up to 8 speakers to be detected\n",
    "            hook=hook\n",
    "        )\n",
    "\n",
    "        # Get configuration from the pipeline's model\n",
    "        try:\n",
    "            duration = getattr(self.diarization, 'duration', 2.0)\n",
    "            step = getattr(self.diarization, 'step', 0.5)\n",
    "        except AttributeError:\n",
    "            # Fallback to default values if attributes are not available\n",
    "            duration = 2.0  # Default duration in seconds\n",
    "            step = 0.5     # Default step in seconds\n",
    "\n",
    "        embeddings = {\n",
    "            'data': closure['embeddings'],\n",
    "            'chunk_duration': duration,\n",
    "            'chunk_offset': step * duration\n",
    "        }\n",
    "\n",
    "        # Print some debug information\n",
    "        print(f\"Using duration: {duration}s, step: {step}s\")\n",
    "        print(f\"Embeddings shape: {closure['embeddings'].shape if closure['embeddings'] is not None else 'None'}\")\n",
    "        \n",
    "        return self.diarization_post.process(diarization, embeddings)\n",
    "\n",
    "    def process_audio(self, audio_path: str) -> dict:\n",
    "        \"\"\"Process a single audio file\"\"\"\n",
    "        self.audio_pre.process(audio_path)\n",
    "\n",
    "        if self.audio_pre.error:\n",
    "            print(self.audio_pre.error)\n",
    "            result = self.diarization_post.empty_result()\n",
    "        else:\n",
    "            result = self.run_diarization()\n",
    "\n",
    "        self.audio_pre.cleanup()\n",
    "        return result\n",
    "\n",
    "# Usage example\n",
    "if __name__ == \"__main__\":\n",
    "    diarizer = SimpleDiarizer()\n",
    "    diarizer.setup()\n",
    "    \n",
    "    # Process an audio file\n",
    "    audio_path = \"output.mp4\"\n",
    "    result = diarizer.process_audio(audio_path)\n",
    "    \n",
    "    # Save the results\n",
    "    with open(\"output.json\", \"w\") as f:\n",
    "        json.dump(result, f, indent=2)"
   ]
  },
  {
   "cell_type": "code",
   "execution_count": 3,
   "metadata": {},
   "outputs": [
    {
     "name": "stdout",
     "output_type": "stream",
     "text": [
      "\n",
      "Processing Speaker A (first_speaker_v3)...\n",
      "Using filter: volume=enable='between(t,0.030969,2.832219)+between(t,22.474719,28.094094)':volume=1,volume=enable='not(between(t,0.030969,2.832219)+between(t,22.474719,28.094094))':volume=0\n"
     ]
    },
    {
     "name": "stderr",
     "output_type": "stream",
     "text": [
      "ffmpeg version 4.4.2-0ubuntu0.22.04.1 Copyright (c) 2000-2021 the FFmpeg developers\n",
      "  built with gcc 11 (Ubuntu 11.2.0-19ubuntu1)\n",
      "  configuration: --prefix=/usr --extra-version=0ubuntu0.22.04.1 --toolchain=hardened --libdir=/usr/lib/x86_64-linux-gnu --incdir=/usr/include/x86_64-linux-gnu --arch=amd64 --enable-gpl --disable-stripping --enable-gnutls --enable-ladspa --enable-libaom --enable-libass --enable-libbluray --enable-libbs2b --enable-libcaca --enable-libcdio --enable-libcodec2 --enable-libdav1d --enable-libflite --enable-libfontconfig --enable-libfreetype --enable-libfribidi --enable-libgme --enable-libgsm --enable-libjack --enable-libmp3lame --enable-libmysofa --enable-libopenjpeg --enable-libopenmpt --enable-libopus --enable-libpulse --enable-librabbitmq --enable-librubberband --enable-libshine --enable-libsnappy --enable-libsoxr --enable-libspeex --enable-libsrt --enable-libssh --enable-libtheora --enable-libtwolame --enable-libvidstab --enable-libvorbis --enable-libvpx --enable-libwebp --enable-libx265 --enable-libxml2 --enable-libxvid --enable-libzimg --enable-libzmq --enable-libzvbi --enable-lv2 --enable-omx --enable-openal --enable-opencl --enable-opengl --enable-sdl2 --enable-pocketsphinx --enable-librsvg --enable-libmfx --enable-libdc1394 --enable-libdrm --enable-libiec61883 --enable-chromaprint --enable-frei0r --enable-libx264 --enable-shared\n",
      "  libavutil      56. 70.100 / 56. 70.100\n",
      "  libavcodec     58.134.100 / 58.134.100\n",
      "  libavformat    58. 76.100 / 58. 76.100\n",
      "  libavdevice    58. 13.100 / 58. 13.100\n",
      "  libavfilter     7.110.100 /  7.110.100\n",
      "  libswscale      5.  9.100 /  5.  9.100\n",
      "  libswresample   3.  9.100 /  3.  9.100\n",
      "  libpostproc    55.  9.100 / 55.  9.100\n",
      "Input #0, mov,mp4,m4a,3gp,3g2,mj2, from 'output.mp4':\n",
      "  Metadata:\n",
      "    major_brand     : isom\n",
      "    minor_version   : 512\n",
      "    compatible_brands: isomiso2avc1mp41\n",
      "    encoder         : Lavf61.7.100\n",
      "  Duration: 00:00:28.03, start: 0.000000, bitrate: 2488 kb/s\n",
      "  Stream #0:0(und): Video: h264 (High) (avc1 / 0x31637661), yuv420p(tv, bt709), 1920x1080 [SAR 1:1 DAR 16:9], 2353 kb/s, 23.98 fps, 23.98 tbr, 24k tbn, 47.95 tbc (default)\n",
      "    Metadata:\n",
      "      handler_name    : VideoHandler\n",
      "      vendor_id       : [0][0][0][0]\n",
      "      encoder         : Lavc61.19.100 libx264\n",
      "  Stream #0:1(und): Audio: aac (LC) (mp4a / 0x6134706D), 44100 Hz, stereo, fltp, 128 kb/s (default)\n",
      "    Metadata:\n",
      "      handler_name    : SoundHandler\n",
      "      vendor_id       : [0][0][0][0]\n",
      "Stream mapping:\n",
      "  Stream #0:1 -> #0:0 (aac (native) -> aac (native))\n",
      "Press [q] to stop, [?] for help\n",
      "Output #0, mp4, to 'first_speaker_v3_speaker_A_output.mp4':\n",
      "  Metadata:\n",
      "    major_brand     : isom\n",
      "    minor_version   : 512\n",
      "    compatible_brands: isomiso2avc1mp41\n",
      "    encoder         : Lavf58.76.100\n",
      "  Stream #0:0(und): Audio: aac (LC) (mp4a / 0x6134706D), 44100 Hz, stereo, fltp, 128 kb/s (default)\n",
      "    Metadata:\n",
      "      handler_name    : SoundHandler\n",
      "      vendor_id       : [0][0][0][0]\n",
      "      encoder         : Lavc58.134.100 aac\n",
      "size=     148kB time=00:00:27.98 bitrate=  43.3kbits/s speed= 130x    \n",
      "video:0kB audio:142kB subtitle:0kB other streams:0kB global headers:0kB muxing overhead: 3.874575%\n",
      "[aac @ 0x5763ced06880] Qavg: 46127.789\n",
      "ffmpeg version 4.4.2-0ubuntu0.22.04.1 Copyright (c) 2000-2021 the FFmpeg developers\n",
      "  built with gcc 11 (Ubuntu 11.2.0-19ubuntu1)\n",
      "  configuration: --prefix=/usr --extra-version=0ubuntu0.22.04.1 --toolchain=hardened --libdir=/usr/lib/x86_64-linux-gnu --incdir=/usr/include/x86_64-linux-gnu --arch=amd64 --enable-gpl --disable-stripping --enable-gnutls --enable-ladspa --enable-libaom --enable-libass --enable-libbluray --enable-libbs2b --enable-libcaca --enable-libcdio --enable-libcodec2 --enable-libdav1d --enable-libflite --enable-libfontconfig --enable-libfreetype --enable-libfribidi --enable-libgme --enable-libgsm --enable-libjack --enable-libmp3lame --enable-libmysofa --enable-libopenjpeg --enable-libopenmpt --enable-libopus --enable-libpulse --enable-librabbitmq --enable-librubberband --enable-libshine --enable-libsnappy --enable-libsoxr --enable-libspeex --enable-libsrt --enable-libssh --enable-libtheora --enable-libtwolame --enable-libvidstab --enable-libvorbis --enable-libvpx --enable-libwebp --enable-libx265 --enable-libxml2 --enable-libxvid --enable-libzimg --enable-libzmq --enable-libzvbi --enable-lv2 --enable-omx --enable-openal --enable-opencl --enable-opengl --enable-sdl2 --enable-pocketsphinx --enable-librsvg --enable-libmfx --enable-libdc1394 --enable-libdrm --enable-libiec61883 --enable-chromaprint --enable-frei0r --enable-libx264 --enable-shared\n",
      "  libavutil      56. 70.100 / 56. 70.100\n",
      "  libavcodec     58.134.100 / 58.134.100\n",
      "  libavformat    58. 76.100 / 58. 76.100\n",
      "  libavdevice    58. 13.100 / 58. 13.100\n",
      "  libavfilter     7.110.100 /  7.110.100\n",
      "  libswscale      5.  9.100 /  5.  9.100\n",
      "  libswresample   3.  9.100 /  3.  9.100\n",
      "  libpostproc    55.  9.100 / 55.  9.100\n"
     ]
    },
    {
     "name": "stdout",
     "output_type": "stream",
     "text": [
      "Created file: first_speaker_v3_speaker_A_output.mp4\n",
      "\n",
      "Processing Speaker B (second_speaker_v3)...\n",
      "Using filter: volume=enable='between(t,3.085344,4.806594)':volume=1,volume=enable='not(between(t,3.085344,4.806594))':volume=0\n"
     ]
    },
    {
     "name": "stderr",
     "output_type": "stream",
     "text": [
      "Input #0, mov,mp4,m4a,3gp,3g2,mj2, from 'output.mp4':\n",
      "  Metadata:\n",
      "    major_brand     : isom\n",
      "    minor_version   : 512\n",
      "    compatible_brands: isomiso2avc1mp41\n",
      "    encoder         : Lavf61.7.100\n",
      "  Duration: 00:00:28.03, start: 0.000000, bitrate: 2488 kb/s\n",
      "  Stream #0:0(und): Video: h264 (High) (avc1 / 0x31637661), yuv420p(tv, bt709), 1920x1080 [SAR 1:1 DAR 16:9], 2353 kb/s, 23.98 fps, 23.98 tbr, 24k tbn, 47.95 tbc (default)\n",
      "    Metadata:\n",
      "      handler_name    : VideoHandler\n",
      "      vendor_id       : [0][0][0][0]\n",
      "      encoder         : Lavc61.19.100 libx264\n",
      "  Stream #0:1(und): Audio: aac (LC) (mp4a / 0x6134706D), 44100 Hz, stereo, fltp, 128 kb/s (default)\n",
      "    Metadata:\n",
      "      handler_name    : SoundHandler\n",
      "      vendor_id       : [0][0][0][0]\n",
      "Stream mapping:\n",
      "  Stream #0:1 -> #0:0 (aac (native) -> aac (native))\n",
      "Press [q] to stop, [?] for help\n",
      "Output #0, mp4, to 'second_speaker_v3_speaker_B_output.mp4':\n",
      "  Metadata:\n",
      "    major_brand     : isom\n",
      "    minor_version   : 512\n",
      "    compatible_brands: isomiso2avc1mp41\n",
      "    encoder         : Lavf58.76.100\n",
      "  Stream #0:0(und): Audio: aac (LC) (mp4a / 0x6134706D), 44100 Hz, stereo, fltp, 128 kb/s (default)\n",
      "    Metadata:\n",
      "      handler_name    : SoundHandler\n",
      "      vendor_id       : [0][0][0][0]\n",
      "      encoder         : Lavc58.134.100 aac\n",
      "size=      43kB time=00:00:27.98 bitrate=  12.7kbits/s speed= 163x    \n",
      "video:0kB audio:38kB subtitle:0kB other streams:0kB global headers:0kB muxing overhead: 14.541381%\n",
      "[aac @ 0x5e841e5ad880] Qavg: 61450.168\n"
     ]
    },
    {
     "name": "stdout",
     "output_type": "stream",
     "text": [
      "Created file: second_speaker_v3_speaker_B_output.mp4\n",
      "\n",
      "Processing Speaker C (third_speaker_v3)...\n",
      "Using filter: volume=enable='between(t,4.806594,9.345969)':volume=1,volume=enable='not(between(t,4.806594,9.345969))':volume=0\n"
     ]
    },
    {
     "name": "stderr",
     "output_type": "stream",
     "text": [
      "ffmpeg version 4.4.2-0ubuntu0.22.04.1 Copyright (c) 2000-2021 the FFmpeg developers\n",
      "  built with gcc 11 (Ubuntu 11.2.0-19ubuntu1)\n",
      "  configuration: --prefix=/usr --extra-version=0ubuntu0.22.04.1 --toolchain=hardened --libdir=/usr/lib/x86_64-linux-gnu --incdir=/usr/include/x86_64-linux-gnu --arch=amd64 --enable-gpl --disable-stripping --enable-gnutls --enable-ladspa --enable-libaom --enable-libass --enable-libbluray --enable-libbs2b --enable-libcaca --enable-libcdio --enable-libcodec2 --enable-libdav1d --enable-libflite --enable-libfontconfig --enable-libfreetype --enable-libfribidi --enable-libgme --enable-libgsm --enable-libjack --enable-libmp3lame --enable-libmysofa --enable-libopenjpeg --enable-libopenmpt --enable-libopus --enable-libpulse --enable-librabbitmq --enable-librubberband --enable-libshine --enable-libsnappy --enable-libsoxr --enable-libspeex --enable-libsrt --enable-libssh --enable-libtheora --enable-libtwolame --enable-libvidstab --enable-libvorbis --enable-libvpx --enable-libwebp --enable-libx265 --enable-libxml2 --enable-libxvid --enable-libzimg --enable-libzmq --enable-libzvbi --enable-lv2 --enable-omx --enable-openal --enable-opencl --enable-opengl --enable-sdl2 --enable-pocketsphinx --enable-librsvg --enable-libmfx --enable-libdc1394 --enable-libdrm --enable-libiec61883 --enable-chromaprint --enable-frei0r --enable-libx264 --enable-shared\n",
      "  libavutil      56. 70.100 / 56. 70.100\n",
      "  libavcodec     58.134.100 / 58.134.100\n",
      "  libavformat    58. 76.100 / 58. 76.100\n",
      "  libavdevice    58. 13.100 / 58. 13.100\n",
      "  libavfilter     7.110.100 /  7.110.100\n",
      "  libswscale      5.  9.100 /  5.  9.100\n",
      "  libswresample   3.  9.100 /  3.  9.100\n",
      "  libpostproc    55.  9.100 / 55.  9.100\n",
      "Input #0, mov,mp4,m4a,3gp,3g2,mj2, from 'output.mp4':\n",
      "  Metadata:\n",
      "    major_brand     : isom\n",
      "    minor_version   : 512\n",
      "    compatible_brands: isomiso2avc1mp41\n",
      "    encoder         : Lavf61.7.100\n",
      "  Duration: 00:00:28.03, start: 0.000000, bitrate: 2488 kb/s\n",
      "  Stream #0:0(und): Video: h264 (High) (avc1 / 0x31637661), yuv420p(tv, bt709), 1920x1080 [SAR 1:1 DAR 16:9], 2353 kb/s, 23.98 fps, 23.98 tbr, 24k tbn, 47.95 tbc (default)\n",
      "    Metadata:\n",
      "      handler_name    : VideoHandler\n",
      "      vendor_id       : [0][0][0][0]\n",
      "      encoder         : Lavc61.19.100 libx264\n",
      "  Stream #0:1(und): Audio: aac (LC) (mp4a / 0x6134706D), 44100 Hz, stereo, fltp, 128 kb/s (default)\n",
      "    Metadata:\n",
      "      handler_name    : SoundHandler\n",
      "      vendor_id       : [0][0][0][0]\n",
      "Stream mapping:\n",
      "  Stream #0:1 -> #0:0 (aac (native) -> aac (native))\n",
      "Press [q] to stop, [?] for help\n",
      "Output #0, mp4, to 'third_speaker_v3_speaker_C_output.mp4':\n",
      "  Metadata:\n",
      "    major_brand     : isom\n",
      "    minor_version   : 512\n",
      "    compatible_brands: isomiso2avc1mp41\n",
      "    encoder         : Lavf58.76.100\n",
      "  Stream #0:0(und): Audio: aac (LC) (mp4a / 0x6134706D), 44100 Hz, stereo, fltp, 128 kb/s (default)\n",
      "    Metadata:\n",
      "      handler_name    : SoundHandler\n",
      "      vendor_id       : [0][0][0][0]\n",
      "      encoder         : Lavc58.134.100 aac\n",
      "size=      87kB time=00:00:27.98 bitrate=  25.4kbits/s speed= 136x    \n",
      "video:0kB audio:81kB subtitle:0kB other streams:0kB global headers:0kB muxing overhead: 6.778379%\n",
      "[aac @ 0x6405ea3a9880] Qavg: 54963.680\n",
      "ffmpeg version 4.4.2-0ubuntu0.22.04.1 Copyright (c) 2000-2021 the FFmpeg developers\n",
      "  built with gcc 11 (Ubuntu 11.2.0-19ubuntu1)\n",
      "  configuration: --prefix=/usr --extra-version=0ubuntu0.22.04.1 --toolchain=hardened --libdir=/usr/lib/x86_64-linux-gnu --incdir=/usr/include/x86_64-linux-gnu --arch=amd64 --enable-gpl --disable-stripping --enable-gnutls --enable-ladspa --enable-libaom --enable-libass --enable-libbluray --enable-libbs2b --enable-libcaca --enable-libcdio --enable-libcodec2 --enable-libdav1d --enable-libflite --enable-libfontconfig --enable-libfreetype --enable-libfribidi --enable-libgme --enable-libgsm --enable-libjack --enable-libmp3lame --enable-libmysofa --enable-libopenjpeg --enable-libopenmpt --enable-libopus --enable-libpulse --enable-librabbitmq --enable-librubberband --enable-libshine --enable-libsnappy --enable-libsoxr --enable-libspeex --enable-libsrt --enable-libssh --enable-libtheora --enable-libtwolame --enable-libvidstab --enable-libvorbis --enable-libvpx --enable-libwebp --enable-libx265 --enable-libxml2 --enable-libxvid --enable-libzimg --enable-libzmq --enable-libzvbi --enable-lv2 --enable-omx --enable-openal --enable-opencl --enable-opengl --enable-sdl2 --enable-pocketsphinx --enable-librsvg --enable-libmfx --enable-libdc1394 --enable-libdrm --enable-libiec61883 --enable-chromaprint --enable-frei0r --enable-libx264 --enable-shared\n",
      "  libavutil      56. 70.100 / 56. 70.100\n",
      "  libavcodec     58.134.100 / 58.134.100\n",
      "  libavformat    58. 76.100 / 58. 76.100\n",
      "  libavdevice    58. 13.100 / 58. 13.100\n",
      "  libavfilter     7.110.100 /  7.110.100\n",
      "  libswscale      5.  9.100 /  5.  9.100\n",
      "  libswresample   3.  9.100 /  3.  9.100\n",
      "  libpostproc    55.  9.100 / 55.  9.100\n"
     ]
    },
    {
     "name": "stdout",
     "output_type": "stream",
     "text": [
      "Created file: third_speaker_v3_speaker_C_output.mp4\n",
      "\n",
      "Processing Speaker D (fourth_speaker_v3)...\n",
      "Using filter: volume=enable='between(t,9.345969,12.974094)':volume=1,volume=enable='not(between(t,9.345969,12.974094))':volume=0\n"
     ]
    },
    {
     "name": "stderr",
     "output_type": "stream",
     "text": [
      "Input #0, mov,mp4,m4a,3gp,3g2,mj2, from 'output.mp4':\n",
      "  Metadata:\n",
      "    major_brand     : isom\n",
      "    minor_version   : 512\n",
      "    compatible_brands: isomiso2avc1mp41\n",
      "    encoder         : Lavf61.7.100\n",
      "  Duration: 00:00:28.03, start: 0.000000, bitrate: 2488 kb/s\n",
      "  Stream #0:0(und): Video: h264 (High) (avc1 / 0x31637661), yuv420p(tv, bt709), 1920x1080 [SAR 1:1 DAR 16:9], 2353 kb/s, 23.98 fps, 23.98 tbr, 24k tbn, 47.95 tbc (default)\n",
      "    Metadata:\n",
      "      handler_name    : VideoHandler\n",
      "      vendor_id       : [0][0][0][0]\n",
      "      encoder         : Lavc61.19.100 libx264\n",
      "  Stream #0:1(und): Audio: aac (LC) (mp4a / 0x6134706D), 44100 Hz, stereo, fltp, 128 kb/s (default)\n",
      "    Metadata:\n",
      "      handler_name    : SoundHandler\n",
      "      vendor_id       : [0][0][0][0]\n",
      "Stream mapping:\n",
      "  Stream #0:1 -> #0:0 (aac (native) -> aac (native))\n",
      "Press [q] to stop, [?] for help\n",
      "Output #0, mp4, to 'fourth_speaker_v3_speaker_D_output.mp4':\n",
      "  Metadata:\n",
      "    major_brand     : isom\n",
      "    minor_version   : 512\n",
      "    compatible_brands: isomiso2avc1mp41\n",
      "    encoder         : Lavf58.76.100\n",
      "  Stream #0:0(und): Audio: aac (LC) (mp4a / 0x6134706D), 44100 Hz, stereo, fltp, 128 kb/s (default)\n",
      "    Metadata:\n",
      "      handler_name    : SoundHandler\n",
      "      vendor_id       : [0][0][0][0]\n",
      "      encoder         : Lavc58.134.100 aac\n",
      "size=      70kB time=00:00:27.98 bitrate=  20.6kbits/s speed= 156x    \n",
      "video:0kB audio:65kB subtitle:0kB other streams:0kB global headers:0kB muxing overhead: 8.499014%\n",
      "[aac @ 0x57aebcb52880] Qavg: 57059.852\n"
     ]
    },
    {
     "name": "stdout",
     "output_type": "stream",
     "text": [
      "Created file: fourth_speaker_v3_speaker_D_output.mp4\n",
      "\n",
      "Processing Speaker E (fifth_speaker_v3)...\n",
      "Using filter: volume=enable='between(t,12.974094,17.530344)':volume=1,volume=enable='not(between(t,12.974094,17.530344))':volume=0\n"
     ]
    },
    {
     "name": "stderr",
     "output_type": "stream",
     "text": [
      "ffmpeg version 4.4.2-0ubuntu0.22.04.1 Copyright (c) 2000-2021 the FFmpeg developers\n",
      "  built with gcc 11 (Ubuntu 11.2.0-19ubuntu1)\n",
      "  configuration: --prefix=/usr --extra-version=0ubuntu0.22.04.1 --toolchain=hardened --libdir=/usr/lib/x86_64-linux-gnu --incdir=/usr/include/x86_64-linux-gnu --arch=amd64 --enable-gpl --disable-stripping --enable-gnutls --enable-ladspa --enable-libaom --enable-libass --enable-libbluray --enable-libbs2b --enable-libcaca --enable-libcdio --enable-libcodec2 --enable-libdav1d --enable-libflite --enable-libfontconfig --enable-libfreetype --enable-libfribidi --enable-libgme --enable-libgsm --enable-libjack --enable-libmp3lame --enable-libmysofa --enable-libopenjpeg --enable-libopenmpt --enable-libopus --enable-libpulse --enable-librabbitmq --enable-librubberband --enable-libshine --enable-libsnappy --enable-libsoxr --enable-libspeex --enable-libsrt --enable-libssh --enable-libtheora --enable-libtwolame --enable-libvidstab --enable-libvorbis --enable-libvpx --enable-libwebp --enable-libx265 --enable-libxml2 --enable-libxvid --enable-libzimg --enable-libzmq --enable-libzvbi --enable-lv2 --enable-omx --enable-openal --enable-opencl --enable-opengl --enable-sdl2 --enable-pocketsphinx --enable-librsvg --enable-libmfx --enable-libdc1394 --enable-libdrm --enable-libiec61883 --enable-chromaprint --enable-frei0r --enable-libx264 --enable-shared\n",
      "  libavutil      56. 70.100 / 56. 70.100\n",
      "  libavcodec     58.134.100 / 58.134.100\n",
      "  libavformat    58. 76.100 / 58. 76.100\n",
      "  libavdevice    58. 13.100 / 58. 13.100\n",
      "  libavfilter     7.110.100 /  7.110.100\n",
      "  libswscale      5.  9.100 /  5.  9.100\n",
      "  libswresample   3.  9.100 /  3.  9.100\n",
      "  libpostproc    55.  9.100 / 55.  9.100\n",
      "Input #0, mov,mp4,m4a,3gp,3g2,mj2, from 'output.mp4':\n",
      "  Metadata:\n",
      "    major_brand     : isom\n",
      "    minor_version   : 512\n",
      "    compatible_brands: isomiso2avc1mp41\n",
      "    encoder         : Lavf61.7.100\n",
      "  Duration: 00:00:28.03, start: 0.000000, bitrate: 2488 kb/s\n",
      "  Stream #0:0(und): Video: h264 (High) (avc1 / 0x31637661), yuv420p(tv, bt709), 1920x1080 [SAR 1:1 DAR 16:9], 2353 kb/s, 23.98 fps, 23.98 tbr, 24k tbn, 47.95 tbc (default)\n",
      "    Metadata:\n",
      "      handler_name    : VideoHandler\n",
      "      vendor_id       : [0][0][0][0]\n",
      "      encoder         : Lavc61.19.100 libx264\n",
      "  Stream #0:1(und): Audio: aac (LC) (mp4a / 0x6134706D), 44100 Hz, stereo, fltp, 128 kb/s (default)\n",
      "    Metadata:\n",
      "      handler_name    : SoundHandler\n",
      "      vendor_id       : [0][0][0][0]\n",
      "Stream mapping:\n",
      "  Stream #0:1 -> #0:0 (aac (native) -> aac (native))\n",
      "Press [q] to stop, [?] for help\n",
      "Output #0, mp4, to 'fifth_speaker_v3_speaker_E_output.mp4':\n",
      "  Metadata:\n",
      "    major_brand     : isom\n",
      "    minor_version   : 512\n",
      "    compatible_brands: isomiso2avc1mp41\n",
      "    encoder         : Lavf58.76.100\n",
      "  Stream #0:0(und): Audio: aac (LC) (mp4a / 0x6134706D), 44100 Hz, stereo, fltp, 128 kb/s (default)\n",
      "    Metadata:\n",
      "      handler_name    : SoundHandler\n",
      "      vendor_id       : [0][0][0][0]\n",
      "      encoder         : Lavc58.134.100 aac\n",
      "size=      87kB time=00:00:27.98 bitrate=  25.5kbits/s speed= 150x    \n",
      "video:0kB audio:82kB subtitle:0kB other streams:0kB global headers:0kB muxing overhead: 6.758503%\n",
      "[aac @ 0x57ce949d8880] Qavg: 54898.152\n",
      "ffmpeg version 4.4.2-0ubuntu0.22.04.1 Copyright (c) 2000-2021 the FFmpeg developers\n",
      "  built with gcc 11 (Ubuntu 11.2.0-19ubuntu1)\n",
      "  configuration: --prefix=/usr --extra-version=0ubuntu0.22.04.1 --toolchain=hardened --libdir=/usr/lib/x86_64-linux-gnu --incdir=/usr/include/x86_64-linux-gnu --arch=amd64 --enable-gpl --disable-stripping --enable-gnutls --enable-ladspa --enable-libaom --enable-libass --enable-libbluray --enable-libbs2b --enable-libcaca --enable-libcdio --enable-libcodec2 --enable-libdav1d --enable-libflite --enable-libfontconfig --enable-libfreetype --enable-libfribidi --enable-libgme --enable-libgsm --enable-libjack --enable-libmp3lame --enable-libmysofa --enable-libopenjpeg --enable-libopenmpt --enable-libopus --enable-libpulse --enable-librabbitmq --enable-librubberband --enable-libshine --enable-libsnappy --enable-libsoxr --enable-libspeex --enable-libsrt --enable-libssh --enable-libtheora --enable-libtwolame --enable-libvidstab --enable-libvorbis --enable-libvpx --enable-libwebp --enable-libx265 --enable-libxml2 --enable-libxvid --enable-libzimg --enable-libzmq --enable-libzvbi --enable-lv2 --enable-omx --enable-openal --enable-opencl --enable-opengl --enable-sdl2 --enable-pocketsphinx --enable-librsvg --enable-libmfx --enable-libdc1394 --enable-libdrm --enable-libiec61883 --enable-chromaprint --enable-frei0r --enable-libx264 --enable-shared\n",
      "  libavutil      56. 70.100 / 56. 70.100\n",
      "  libavcodec     58.134.100 / 58.134.100\n",
      "  libavformat    58. 76.100 / 58. 76.100\n",
      "  libavdevice    58. 13.100 / 58. 13.100\n",
      "  libavfilter     7.110.100 /  7.110.100\n",
      "  libswscale      5.  9.100 /  5.  9.100\n",
      "  libswresample   3.  9.100 /  3.  9.100\n",
      "  libpostproc    55.  9.100 / 55.  9.100\n"
     ]
    },
    {
     "name": "stdout",
     "output_type": "stream",
     "text": [
      "Created file: fifth_speaker_v3_speaker_E_output.mp4\n",
      "\n",
      "Processing Speaker F (sixth_speaker_v3)...\n",
      "Using filter: volume=enable='between(t,17.530344,22.474719)':volume=1,volume=enable='not(between(t,17.530344,22.474719))':volume=0\n"
     ]
    },
    {
     "name": "stderr",
     "output_type": "stream",
     "text": [
      "Input #0, mov,mp4,m4a,3gp,3g2,mj2, from 'output.mp4':\n",
      "  Metadata:\n",
      "    major_brand     : isom\n",
      "    minor_version   : 512\n",
      "    compatible_brands: isomiso2avc1mp41\n",
      "    encoder         : Lavf61.7.100\n",
      "  Duration: 00:00:28.03, start: 0.000000, bitrate: 2488 kb/s\n",
      "  Stream #0:0(und): Video: h264 (High) (avc1 / 0x31637661), yuv420p(tv, bt709), 1920x1080 [SAR 1:1 DAR 16:9], 2353 kb/s, 23.98 fps, 23.98 tbr, 24k tbn, 47.95 tbc (default)\n",
      "    Metadata:\n",
      "      handler_name    : VideoHandler\n",
      "      vendor_id       : [0][0][0][0]\n",
      "      encoder         : Lavc61.19.100 libx264\n",
      "  Stream #0:1(und): Audio: aac (LC) (mp4a / 0x6134706D), 44100 Hz, stereo, fltp, 128 kb/s (default)\n",
      "    Metadata:\n",
      "      handler_name    : SoundHandler\n",
      "      vendor_id       : [0][0][0][0]\n",
      "Stream mapping:\n",
      "  Stream #0:1 -> #0:0 (aac (native) -> aac (native))\n",
      "Press [q] to stop, [?] for help\n",
      "Output #0, mp4, to 'sixth_speaker_v3_speaker_F_output.mp4':\n",
      "  Metadata:\n",
      "    major_brand     : isom\n",
      "    minor_version   : 512\n",
      "    compatible_brands: isomiso2avc1mp41\n",
      "    encoder         : Lavf58.76.100\n",
      "  Stream #0:0(und): Audio: aac (LC) (mp4a / 0x6134706D), 44100 Hz, stereo, fltp, 128 kb/s (default)\n",
      "    Metadata:\n",
      "      handler_name    : SoundHandler\n",
      "      vendor_id       : [0][0][0][0]\n",
      "      encoder         : Lavc58.134.100 aac\n",
      "size=       0kB time=00:00:00.00 bitrate=N/A speed=   0x    \r"
     ]
    },
    {
     "name": "stdout",
     "output_type": "stream",
     "text": [
      "Created file: sixth_speaker_v3_speaker_F_output.mp4\n",
      "\n",
      "All speaker files have been created!\n"
     ]
    },
    {
     "name": "stderr",
     "output_type": "stream",
     "text": [
      "size=      92kB time=00:00:27.98 bitrate=  27.1kbits/s speed= 141x    \n",
      "video:0kB audio:87kB subtitle:0kB other streams:0kB global headers:0kB muxing overhead: 6.347725%\n",
      "[aac @ 0x5ecb3c954880] Qavg: 53967.988\n"
     ]
    }
   ],
   "source": [
    "import subprocess\n",
    "from collections import defaultdict\n",
    "import json\n",
    "\n",
    "# Load the JSON file\n",
    "with open('output.json', 'r') as f:\n",
    "    json_data = json.load(f)\n",
    "\n",
    "# Group segments by speaker\n",
    "speaker_segments = defaultdict(list)\n",
    "for segment in json_data['segments']:\n",
    "    # Convert time format to seconds\n",
    "    start_parts = segment['start'].split(':')\n",
    "    stop_parts = segment['stop'].split(':')\n",
    "    \n",
    "    # Convert HH:MM:SS.xxx to seconds\n",
    "    start = float(start_parts[-1]) + int(start_parts[-2])*60 + int(start_parts[-3])*3600\n",
    "    stop = float(stop_parts[-1]) + int(stop_parts[-2])*60 + int(stop_parts[-3])*3600\n",
    "\n",
    "    speaker_segments[segment['speaker']].append({\n",
    "        'start': start,\n",
    "        'end': stop\n",
    "    })\n",
    "\n",
    "input_file = \"output.mp4\"\n",
    "\n",
    "# Define speaker names (you can customize these)\n",
    "speaker_names = {\n",
    "    'A': 'first_speaker_v3',\n",
    "    'B': 'second_speaker_v3',\n",
    "    'C': 'third_speaker_v3',\n",
    "    'D': 'fourth_speaker_v3',\n",
    "    'E': 'fifth_speaker_v3',\n",
    "    'F': 'sixth_speaker_v3'\n",
    "}\n",
    "\n",
    "for speaker, segments in speaker_segments.items():\n",
    "    # Create the volume filter expression\n",
    "    volume_expr = []\n",
    "    for segment in segments:\n",
    "        volume_expr.append(f\"between(t,{segment['start']},{segment['end']})\")\n",
    "\n",
    "    # Combine all segments with OR operator (+)\n",
    "    filter_expression = f\"volume=enable='{'+'.join(volume_expr)}':volume=1,volume=enable='not({'+'.join(volume_expr)})':volume=0\"\n",
    "\n",
    "    # Create a more descriptive output filename\n",
    "    speaker_name = speaker_names.get(speaker, f\"unknown_speaker_{speaker}\")\n",
    "    output_file = f\"{speaker_name}_speaker_{speaker}_output.mp4\"\n",
    "\n",
    "    cmd = [\n",
    "        \"ffmpeg\", \"-i\", input_file,\n",
    "        \"-af\", filter_expression,\n",
    "        \"-c:a\", \"aac\",\n",
    "        \"-vn\",  # Remove video stream\n",
    "        output_file\n",
    "    ]\n",
    "\n",
    "    print(f\"\\nProcessing Speaker {speaker} ({speaker_name})...\")\n",
    "    print(f\"Using filter: {filter_expression}\")\n",
    "    try:\n",
    "        subprocess.run(cmd, check=True)\n",
    "        print(f\"Created file: {output_file}\")\n",
    "    except subprocess.CalledProcessError as e:\n",
    "        print(f\"Error processing Speaker {speaker} ({speaker_name}): {e}\")\n",
    "\n",
    "print(\"\\nAll speaker files have been created!\")"
   ]
  },
  {
   "cell_type": "code",
   "execution_count": null,
   "metadata": {},
   "outputs": [],
   "source": [
    "#ok how can we make the results better now so that the two speaker are not getting detected as one speaker"
   ]
  }
 ],
 "metadata": {
  "kernelspec": {
   "display_name": "Python 3",
   "language": "python",
   "name": "python3"
  },
  "language_info": {
   "codemirror_mode": {
    "name": "ipython",
    "version": 3
   },
   "file_extension": ".py",
   "mimetype": "text/x-python",
   "name": "python",
   "nbconvert_exporter": "python",
   "pygments_lexer": "ipython3",
   "version": "3.8.18"
  }
 },
 "nbformat": 4,
 "nbformat_minor": 2
}
